<svg xmlns="http://www.w3.org/2000/svg" version="1.1" xmlns:xlink="http://www.w3.org/1999/xlink" xmlns:svgjs="http://svgjs.dev/svgjs" width="1000" height="219" viewBox="0 0 1000 219"><g transform="matrix(1,0,0,1,-0.6060606060606233,-0.3521031520122051)"><svg viewBox="0 0 396 87" data-background-color="#ffffff" preserveAspectRatio="xMidYMid meet" height="219" width="1000" xmlns="http://www.w3.org/2000/svg" xmlns:xlink="http://www.w3.org/1999/xlink"><defs></defs><g id="tight-bounds" transform="matrix(1,0,0,1,0.2400000000000091,0.13987659463498403)"><svg viewBox="0 0 395.52 86.72024681073005" height="86.72024681073005" width="395.52"><g><svg viewBox="0 0 531.3278607249306 116.49697415929204" height="86.72024681073005" width="395.52"><g transform="matrix(1,0,0,1,0,16.100522477876112)"><svg viewBox="0 0 395.52 84.29592920353981" height="84.29592920353981" width="395.52"><g><svg viewBox="0 0 395.52 84.29592920353981" height="84.29592920353981" width="395.52"><g><svg viewBox="0 0 395.52 84.29592920353981" height="84.29592920353981" width="395.52"><g transform="matrix(1,0,0,1,0,0)"><svg width="395.52" viewBox="1.5 -42.95000076293945 203.3800048828125 43.35000228881836" height="84.29592920353981" data-palette-color="#f3a83c"><path d="M9.8 0L1.5 0 1.5-42.95 9.8-42.95 9.8 0ZM13.1 0L13.1-36.6 21.85-36.6 21.85-31.95Q22.4-34.2 23.75-35.6 25.1-37 27.35-37L27.35-37Q31.05-37 32.82-34.73 34.6-32.45 34.6-28.25L34.6-28.25 34.6 0 26 0 26-27.35Q26-28.55 25.52-29.4 25.05-30.25 24.05-30.25L24.05-30.25Q22.7-30.25 22.27-29.03 21.85-27.8 21.85-25.75L21.85-25.75 21.85 0 13.1 0ZM48.1 0.4Q37.25 0.4 37.25-10.6L37.25-10.6 37.3-13.5 46.05-13.5 46.1-9.2Q46.1-7.9 46.6-7.23 47.1-6.55 48.25-6.55L48.25-6.55Q50-6.55 50-9.4L50-9.4Q50-11.5 49.17-12.7 48.35-13.9 46.55-15.25L46.55-15.25 41.9-18.85Q39.5-20.7 38.45-22.68 37.4-24.65 37.4-28.25L37.4-28.25Q37.4-31.05 38.87-33.02 40.35-35 42.8-36 45.25-37 48.25-37L48.25-37Q58.9-37 58.9-26.4L58.9-26.4 58.9-25.7 49.85-25.7 49.85-27.1Q49.85-28.4 49.42-29.33 49-30.25 48-30.25L48-30.25Q47.1-30.25 46.62-29.73 46.15-29.2 46.15-28.3L46.15-28.3Q46.15-26.3 47.7-25.2L47.7-25.2 53.1-21.25Q56-19.1 57.55-16.57 59.1-14.05 59.1-10.2L59.1-10.2Q59.1-5.1 56.2-2.35 53.3 0.4 48.1 0.4L48.1 0.4ZM69.34 0.4Q65.89 0.4 64.59-1.05 63.29-2.5 63.29-5.7L63.29-5.7 63.29-28.55 60.84-28.55 60.84-35.2 63.29-35.2 63.29-42.95 71.79-42.95 71.79-35.2 74.29-35.2 74.29-28.55 71.79-28.55 71.79-8Q71.79-7.05 71.94-6.6 72.09-6.15 72.74-6.15L72.74-6.15Q73.24-6.15 73.69-6.2 74.14-6.25 74.29-6.25L74.29-6.25 74.29-0.25Q73.54-0.05 72.12 0.18 70.69 0.4 69.34 0.4L69.34 0.4ZM77.04 0L77.04-36.6 85.79-36.6 85.79-32.55Q86.44-34.7 88.07-35.88 89.69-37.05 92.09-37.05L92.09-37.05 92.09-29.75Q90.24-29.75 88.02-29.23 85.79-28.7 85.79-28L85.79-28 85.79 0 77.04 0ZM101.29 0.4Q97.19 0.4 95.66-2.05 94.14-4.5 94.14-9.35L94.14-9.35 94.14-36.6 102.94-36.6 102.94-11.1Q102.94-10.75 102.94-9.22 102.94-7.7 103.41-7.08 103.89-6.45 104.89-6.45L104.89-6.45Q106.24-6.45 106.59-7.58 106.94-8.7 106.94-10.8L106.94-10.8 106.94-11.1 106.99-36.6 115.69-36.6 115.69 0 106.94 0 106.94-3.9Q106.04-1.6 104.84-0.6 103.64 0.4 101.29 0.4L101.29 0.4ZM119.34 0L119.34-42.95 132.54-42.95Q135.69-42.95 137.41-41.53 139.14-40.1 139.74-37.52 140.34-34.95 140.34-30.95L140.34-30.95Q140.34-27.3 139.39-25.25 138.44-23.2 136.09-22.4L136.09-22.4Q138.04-22 138.91-20.45 139.79-18.9 139.79-16.25L139.79-16.25 139.69 0 131.29 0 131.29-16.8Q131.29-18.6 130.59-19.1 129.89-19.6 128.04-19.6L128.04-19.6 128.04 0 119.34 0ZM128.09-27.05L130.14-27.05Q131.94-27.05 131.94-30.95L131.94-30.95Q131.94-32.65 131.79-33.5 131.64-34.35 131.24-34.68 130.84-35 130.09-35L130.09-35 128.09-35 128.09-27.05ZM153.28 0.4Q147.63 0.4 145.18-2.7 142.73-5.8 142.73-11.95L142.73-11.95 142.73-26.65Q142.73-31.7 145.63-34.35 148.53-37 153.73-37L153.73-37Q164.28-37 164.28-26.65L164.28-26.65 164.28-24Q164.28-20 164.18-17.5L164.18-17.5 151.48-17.5 151.48-10.4Q151.48-8.5 151.88-7.43 152.28-6.35 153.58-6.35L153.58-6.35Q154.58-6.35 155.01-6.95 155.43-7.55 155.51-8.33 155.58-9.1 155.58-10.6L155.58-10.6 155.58-14.15 164.28-14.15 164.28-12.05Q164.28-5.65 161.81-2.63 159.33 0.4 153.28 0.4L153.28 0.4ZM151.43-21.85L155.58-21.85 155.58-26.55Q155.58-30.5 153.63-30.5L153.63-30.5Q151.43-30.5 151.43-26.55L151.43-26.55 151.43-21.85ZM167.43 0L167.43-36.6 176.18-36.6 176.18-31.95Q176.73-34.2 178.08-35.6 179.43-37 181.68-37L181.68-37Q185.38-37 187.16-34.73 188.93-32.45 188.93-28.25L188.93-28.25 188.93 0 180.33 0 180.33-27.35Q180.33-28.55 179.86-29.4 179.38-30.25 178.38-30.25L178.38-30.25Q177.03-30.25 176.61-29.03 176.18-27.8 176.18-25.75L176.18-25.75 176.18 0 167.43 0ZM199.93 0.4Q196.48 0.4 195.18-1.05 193.88-2.5 193.88-5.7L193.88-5.7 193.88-28.55 191.43-28.55 191.43-35.2 193.88-35.2 193.88-42.95 202.38-42.95 202.38-35.2 204.88-35.2 204.88-28.55 202.38-28.55 202.38-8Q202.38-7.05 202.53-6.6 202.68-6.15 203.33-6.15L203.33-6.15Q203.83-6.15 204.28-6.2 204.73-6.25 204.88-6.25L204.88-6.25 204.88-0.25Q204.13-0.05 202.7 0.18 201.28 0.4 199.93 0.4L199.93 0.4Z" opacity="1" transform="matrix(1,0,0,1,0,0)" fill="#f3a83c" class="undefined-text-0" data-fill-palette-color="primary" id="text-0"></path></svg></g></svg></g></svg></g></svg></g><g transform="matrix(1,0,0,1,415.42024578265483,0)"><svg viewBox="0 0 115.9076149422757 116.49697415929204" height="116.49697415929204" width="115.9076149422757"><g><svg xmlns="http://www.w3.org/2000/svg" xmlns:xlink="http://www.w3.org/1999/xlink" version="1.1" x="0" y="0" viewBox="5 4.699999809265137 118.00000762939453 118.60000610351562" style="enable-background:new 0 0 128 128;" xml:space="preserve" height="116.49697415929204" width="115.9076149422757" class="icon-icon-0" data-fill-palette-color="accent" id="icon-0"><g fill="#f3a83c" data-fill-palette-color="accent"><path d="M114.7 4.7H13.3C8.7 4.7 5 8.4 5 13V115c0 4.6 3.7 8.3 8.3 8.3h101.4c4.6 0 8.3-3.7 8.3-8.3V13C123 8.4 119.3 4.7 114.7 4.7zM13.3 8.7h101.4c2.4 0 4.3 1.9 4.3 4.3v51.3H9V13C9 10.6 10.9 8.7 13.3 8.7zM27.8 68.3L19.6 71v-2.8H27.8zM19.6 75.3l14-4.7v3.2l-14 4.8V75.3zM33.6 77.9v2.8l-13.3 4.4c-0.4-0.8-0.6-1.6-0.7-2.5L33.6 77.9zM32.9 85.2c-1.1 2.4-3.5 4-6.3 4-1.2 0-2.3-0.3-3.2-0.8L32.9 85.2zM28.6 93c5.1-0.9 9-5.4 9-10.8v-14h5.9v51.1H28.6V93zM47.4 68.3h6.3v14c0 5.4 3.9 9.9 9 10.8v26.3H47.4V68.3zM64.7 89.2c-1.2 0-2.3-0.3-3.2-0.8l9.6-3.2C69.8 87.6 67.5 89.2 64.7 89.2zM71.7 73.7l-14 4.8v-3.2l14-4.7V73.7zM71.7 80.8l-13.3 4.4c-0.4-0.8-0.6-1.6-0.7-2.5l14-4.8V80.8zM57.7 71v-2.8h8.2L57.7 71zM66.7 93c5.1-0.9 9-5.4 9-10.8v-14h5.9v51.1H66.7V93zM85.5 68.3h5.3v14c0 5.4 3.9 9.9 9 10.8v26.3H85.5V68.3zM108.8 73.7l-14 4.8v-3.2l14-4.7V73.7zM94.8 71v-2.8h8.2L94.8 71zM101.8 89.2c-1.2 0-2.3-0.3-3.2-0.8l9.6-3.2C107 87.6 104.6 89.2 101.8 89.2zM108.8 80.8l-13.3 4.4c-0.4-0.8-0.6-1.6-0.7-2.5l14-4.8V80.8zM9 115V68.3h6.6v14c0 5.4 3.9 9.9 9 10.8v26.3H13.3C10.9 119.3 9 117.4 9 115zM114.7 119.3h-10.9V93c5.1-0.9 9-5.4 9-10.8v-14h6.2V115C119 117.4 117.1 119.3 114.7 119.3z" fill="#f3a83c" data-fill-palette-color="accent"></path><path d="M60.2 38.1h46.5c4.2 0 7.6-3.4 7.6-7.6v-11c0-4.2-3.4-7.6-7.6-7.6H60.2c-4.2 0-7.6 3.4-7.6 7.6v11C52.5 34.7 55.9 38.1 60.2 38.1zM56.5 19.5c0-2 1.6-3.6 3.6-3.6h46.5c2 0 3.6 1.6 3.6 3.6v11c0 2-1.6 3.6-3.6 3.6H60.2c-2 0-3.6-1.6-3.6-3.6V19.5z" fill="#f3a83c" data-fill-palette-color="accent"></path><path d="M15.5 35.8h1.9v17h4v-17h1.9c3 0 5.5-2.5 5.5-5.5 0-3-2.5-5.5-5.5-5.5h-1.9v-5.4h-4v5.4h-1.9c-3 0-5.5 2.5-5.5 5.5C10 33.4 12.4 35.8 15.5 35.8zM15.5 28.8h7.9c0.8 0 1.5 0.7 1.5 1.5 0 0.8-0.7 1.5-1.5 1.5h-7.9c-0.8 0-1.5-0.7-1.5-1.5C14 29.5 14.6 28.8 15.5 28.8z" fill="#f3a83c" data-fill-palette-color="accent"></path><path d="M34.1 45.1H36v7.7h4v-7.7h1.9c3 0 5.5-2.5 5.5-5.5 0-3-2.5-5.5-5.5-5.5H40V19.4h-4v14.7h-1.9c-3 0-5.5 2.5-5.5 5.5C28.5 42.7 31 45.1 34.1 45.1zM34.1 38.1h7.9c0.8 0 1.5 0.7 1.5 1.5 0 0.8-0.7 1.5-1.5 1.5h-7.9c-0.8 0-1.5-0.7-1.5-1.5C32.5 38.8 33.2 38.1 34.1 38.1z" fill="#f3a83c" data-fill-palette-color="accent"></path><path d="M69.6 39.4c-6.3 0-11.5 5.2-11.5 11.5s5.2 11.5 11.5 11.5 11.5-5.2 11.5-11.5S75.9 39.4 69.6 39.4zM69.6 58.4c-4.1 0-7.5-3.4-7.5-7.5s3.4-7.5 7.5-7.5 7.5 3.4 7.5 7.5S73.7 58.4 69.6 58.4z" fill="#f3a83c" data-fill-palette-color="accent"></path><polygon points="71.6,46.1 67.6,46.1 67.6,48.5 65.2,48.5 65.2,52.5 67.6,52.5 67.6,54.9 71.6,54.9 71.6,52.5 74,52.5 74,48.5    71.6,48.5  " fill="#f3a83c" data-fill-palette-color="accent"></polygon><path d="M97.5 39.8c-6.1 0-11.1 5-11.1 11.1s5 11.1 11.1 11.1c6.1 0 11.1-5 11.1-11.1S103.6 39.8 97.5 39.8zM97.5 57.9c-3.9 0-7.1-3.2-7.1-7.1s3.2-7.1 7.1-7.1 7.1 3.2 7.1 7.1S101.3 57.9 97.5 57.9z" fill="#f3a83c" data-fill-palette-color="accent"></path><rect x="93.1" y="48.5" width="8.8" height="4" fill="#f3a83c" data-fill-palette-color="accent"></rect></g></svg></g></svg></g></svg></g></svg><rect width="395.52" height="86.72024681073005" fill="none" stroke="none" visibility="hidden"></rect></g></svg></g></svg>